<?xml version="1.0" encoding="UTF-8" standalone="no"?>
<svg
   xmlns:dc="http://purl.org/dc/elements/1.1/"
   xmlns:cc="http://creativecommons.org/ns#"
   xmlns:rdf="http://www.w3.org/1999/02/22-rdf-syntax-ns#"
   xmlns:svg="http://www.w3.org/2000/svg"
   xmlns="http://www.w3.org/2000/svg"
   xmlns:sodipodi="http://sodipodi.sourceforge.net/DTD/sodipodi-0.dtd"
   xmlns:inkscape="http://www.inkscape.org/namespaces/inkscape"
   width="112.78646"
   height="90.354584"
   viewBox="0 0 160.36825 128.47293"
   enable-background="new 0 0 91 91"
   id="Layer_1"
   version="1.1"
   xml:space="preserve"
   sodipodi:docname="popular.svg"
   style="fill:#000000"
   inkscape:version="0.92.3 (2405546, 2018-03-11)"><metadata
   id="metadata835"><rdf:RDF><cc:Work
       rdf:about=""><dc:format>image/svg+xml</dc:format><dc:type
         rdf:resource="http://purl.org/dc/dcmitype/StillImage" /></cc:Work></rdf:RDF></metadata><defs
   id="defs833" /><sodipodi:namedview
   pagecolor="#ffffff"
   bordercolor="#666666"
   borderopacity="1"
   objecttolerance="10"
   gridtolerance="10"
   guidetolerance="10"
   inkscape:pageopacity="0"
   inkscape:pageshadow="2"
   inkscape:window-width="1920"
   inkscape:window-height="991"
   id="namedview831"
   showgrid="true"
   inkscape:zoom="4.3862718"
   inkscape:cx="73.016747"
   inkscape:cy="26.433658"
   inkscape:window-x="-9"
   inkscape:window-y="-9"
   inkscape:window-maximized="1"
   inkscape:current-layer="Layer_1"
   showguides="true"><inkscape:grid
     type="xygrid"
     id="grid4544"
     originx="31.085675"
     originy="21.292337" /></sodipodi:namedview><g
   id="SVGRepo_bgCarrier"
   style="stroke-width:0"
   transform="translate(30.636678,-0.585)" /><g
   id="SVGRepo_tracerCarrier"
   style="stroke-linecap:round;stroke-linejoin:round"
   transform="translate(30.636678,-0.585)" /><g
   id="SVGRepo_iconCarrier"
   transform="translate(30.636678,-0.585)"
   style="fill:#000055;fill-opacity:1"> <g
   id="g827"
   style="fill:#000055;fill-opacity:1"> <g
   id="g825"
   style="fill:#000055;fill-opacity:1"> <path
   d="M 13.012,55.145 0.449,72.08 15.074,73.764 c 1.09,0.125 2.029,0.834 2.453,1.85 l 5.629,13.564 13.34,-17.691 C 26.754,69.174 18.41,63.236 13.012,55.145 Z"
   id="path817"
   inkscape:connector-curvature="0"
   style="fill:#000055;fill-opacity:1" /> <path
   d="M 78.029,55.049 C 72.689,63.1 64.443,69.029 54.804,71.403 l 13.402,17.775 5.627,-13.564 c 0.42,-1.016 1.359,-1.725 2.449,-1.85 l 14.586,-1.678 z"
   id="path819"
   inkscape:connector-curvature="0"
   style="fill:#000055;fill-opacity:1" /> <path
   d="m 45.49,16.163 c -9.59,0 -17.389,7.801 -17.389,17.39 0,9.586 7.799,17.385 17.389,17.385 9.588,0 17.391,-7.799 17.391,-17.385 0,-9.589 -7.803,-17.39 -17.391,-17.39 z"
   id="path821"
   inkscape:connector-curvature="0"
   style="fill:#000055;fill-opacity:1" /> <path
   d="m 78.455,33.552 c 0,-18.178 -14.787,-32.967 -32.963,-32.967 -18.178,0 -32.965,14.789 -32.965,32.967 0,18.174 14.787,32.961 32.965,32.961 18.176,10e-4 32.963,-14.786 32.963,-32.961 z M 45.49,56.996 c -12.93,0 -23.445,-10.516 -23.445,-23.444 0,-12.929 10.516,-23.449 23.445,-23.449 12.932,0 23.447,10.521 23.447,23.449 C 68.938,46.48 58.422,56.996 45.49,56.996 Z"
   id="path823"
   inkscape:connector-curvature="0"
   style="fill:#000055;fill-opacity:1" /> </g> </g> </g><text
   xml:space="preserve"
   style="font-style:normal;font-weight:normal;font-size:12.03004456px;line-height:1.25;font-family:sans-serif;letter-spacing:0px;word-spacing:0px;fill:#000055;fill-opacity:1;stroke:none;stroke-width:0.30075112;"
   x="7.8281093"
   y="120.84516"
   id="text4542"><tspan
     sodipodi:role="line"
     id="tspan4540"
     x="7.8281093"
     y="120.84516"
     style="font-style:normal;font-variant:normal;font-weight:bold;font-stretch:normal;font-size:37.91666794px;font-family:rubik;-inkscape-font-specification:'rubik Bold';fill:#000055;fill-opacity:1;stroke-width:0.30075112;">Popular</tspan></text>





</svg>