<!DOCTYPE svg PUBLIC "-//W3C//DTD SVG 1.1//EN" "http://www.w3.org/Graphics/SVG/1.1/DTD/svg11.dtd">
<!-- Uploaded to: SVG Repo, www.svgrepo.com, Transformed by: SVG Repo Mixer Tools -->
<svg fill="#0085d1" version="1.1" id="Layer_1" xmlns="http://www.w3.org/2000/svg" xmlns:xlink="http://www.w3.org/1999/xlink" viewBox="0 0 491.52 491.52" xml:space="preserve" width="64px" height="64px" stroke="#0085d1">
<g id="SVGRepo_bgCarrier" stroke-width="0"/>
<g id="SVGRepo_tracerCarrier" stroke-linecap="round" stroke-linejoin="round"/>
<g id="SVGRepo_iconCarrier"> <g> <g> <rect x="92.16" y="40.96" width="61.44" height="20.48"/> </g> </g> <g> <g> <rect x="378.88" y="40.96" width="20.48" height="20.48"/> </g> </g> <g> <g> <rect x="337.92" y="40.96" width="20.48" height="20.48"/> </g> </g> <g> <g> <rect x="92.16" y="163.84" width="61.44" height="20.48"/> </g> </g> <g> <g> <rect x="378.88" y="163.84" width="20.48" height="20.48"/> </g> </g> <g> <g> <rect x="337.92" y="163.84" width="20.48" height="20.48"/> </g> </g> <g> <g> <path d="M450.56,348.16c-19.029,0-34.926,13.104-39.506,30.72H378.88V266.24h40.96v-20.48h-40.96v-20.48h61.44v-102.4h-61.44 V102.4h61.44V0H51.2v102.4h61.44v20.48H51.2v102.4h61.44v20.48H71.68v20.48h40.96v112.64H80.466 c-4.58-17.616-20.477-30.72-39.506-30.72C18.375,348.16,0,366.535,0,389.12s18.375,40.96,40.96,40.96 c19.029,0,34.926-13.104,39.506-30.72h52.654V266.24h51.2v144.814c-17.616,4.58-30.72,20.477-30.72,39.506 c0,22.585,18.375,40.96,40.96,40.96s40.96-18.375,40.96-40.96c0-19.029-13.104-34.926-30.72-39.506V266.24h81.92v144.814 c-17.616,4.58-30.72,20.477-30.72,39.506c0,22.585,18.375,40.96,40.96,40.96c22.585,0,40.96-18.375,40.96-40.96 c0-19.029-13.104-34.926-30.72-39.506V266.24h51.2v133.12h52.654c4.58,17.616,20.477,30.72,39.506,30.72 c22.585,0,40.96-18.375,40.96-40.96S473.145,348.16,450.56,348.16z M40.96,409.6c-11.295,0-20.48-9.185-20.48-20.48 s9.185-20.48,20.48-20.48s20.48,9.185,20.48,20.48S52.255,409.6,40.96,409.6z M71.68,81.92V20.48h348.16v61.44H71.68z M358.4,102.4v20.48H133.12V102.4H358.4z M71.68,204.8v-61.44h348.16v61.44H71.68z M215.04,450.56 c0,11.295-9.185,20.48-20.48,20.48s-20.48-9.185-20.48-20.48s9.185-20.48,20.48-20.48S215.04,439.265,215.04,450.56z M317.44,450.56c0,11.295-9.185,20.48-20.48,20.48c-11.295,0-20.48-9.185-20.48-20.48s9.185-20.48,20.48-20.48 C308.255,430.08,317.44,439.265,317.44,450.56z M358.4,245.76H133.12v-20.48H358.4V245.76z M450.56,409.6 c-11.295,0-20.48-9.185-20.48-20.48s9.185-20.48,20.48-20.48s20.48,9.185,20.48,20.48S461.855,409.6,450.56,409.6z"/> </g> </g> </g>
</svg>