<svg style="display: none">
    <symbol id="chevron" height="100%" width="100%" viewBox="0 0 24 24" fill="none" stroke="#ffffff">
        <g stroke-width="0" />
        <g id="SVGRepo_tracerCarrier" stroke-linecap="round" stroke-linejoin="round" />
        <g id="SVGRepo_iconCarrier">
            <path d="M9 18L14.7874 12.2126V12.2126C14.9048 12.0952 14.9048 11.9048 14.7874 11.7874V11.7874L9 6"
                stroke="#ffffff" stroke-width="2" stroke-linecap="round" stroke-linejoin="round" />
        </g>
    </symbol>
    <symbol id="cloud-computing" height="100%" width="100%" viewBox="0 0 512 512" xml:space="preserve">
        <circle style="fill: #21d0c3" cx="256" cy="256" r="256" />
        <path style="fill: #ffffff" d="M252.442,305.805H185.31h-3.062v3.064v47.326h6.126v-44.263h64.068v61.81v81.495h6.126v-81.495
              v-23.523h64.067v44.263h6.126v-47.326v-3.064h-3.064h-67.129V225.146h-6.126V305.805z" />
        <path style="fill: #0f7986" d="M255.503,475.702c6.353,0,11.5-5.149,11.5-11.5c0-6.351-5.148-11.502-11.5-11.502
              s-11.5,5.15-11.5,11.502C244.003,470.554,249.151,475.702,255.503,475.702z" />
        <path style="fill: #ffffff"
            d="M143.05,284.901H83.365v6.126h59.684v50.645h6.127V192.388h-6.127L143.05,284.901L143.05,284.901z" />
        <path style="fill: #fad24d" d="M146.114,353.171c6.352,0,11.5-5.149,11.5-11.5c0-6.353-5.149-11.502-11.5-11.502
              c-6.353,0-11.503,5.149-11.503,11.502C134.611,348.023,139.761,353.171,146.114,353.171z" />
        <path style="fill: #0f7986" d="M83.498,299.991c6.353,0,11.502-5.149,11.502-11.502c0-6.352-5.149-11.5-11.502-11.5
              c-6.352,0-11.5,5.149-11.5,11.5C71.997,294.842,77.146,299.991,83.498,299.991z" />
        <path style="fill: #ffffff" d="M367.493,284.901h59.684v6.126h-59.684v50.645h-6.127V192.388h6.127V284.901z" />
        <path style="fill: #0f7986" d="M364.429,352.985c-6.248,0-11.311-5.065-11.311-11.313c0-6.249,5.064-11.314,11.311-11.314
              c6.249,0,11.314,5.065,11.314,11.314C375.743,347.919,370.678,352.985,364.429,352.985z" />
        <path style="fill: #ff5b62" d="M427.045,300.052c-6.387,0-11.562-5.176-11.562-11.562c0-6.386,5.176-11.561,11.562-11.561
              c6.386,0,11.561,5.176,11.561,11.561C438.606,294.876,433.43,300.052,427.045,300.052z" />
        <path style="fill: #ecf0f1" d="M109.433,177.179c0.559,0,1.112,0.013,1.665,0.038c8.189-22.901,30.066-39.285,55.78-39.285
              c6.851,0,13.432,1.168,19.551,3.309c6.895-49.05,49.024-86.798,99.978-86.798c53.738,0,97.67,41.985,100.788,94.942
              c28.657,1.028,51.568,24.576,51.568,53.483c0,29.559-23.96,53.52-53.52,53.52c-94.808,0-181.539,0-275.809,0
              c-21.873,0-39.603-17.731-39.603-39.604S87.561,177.178,109.433,177.179L109.433,177.179z" />
        <path style="fill: #ffffff" d="M107.229,171.885c0.558,0,1.111,0.014,1.663,0.038c8.189-22.899,30.066-39.284,55.781-39.284
              c6.85,0,13.431,1.167,19.551,3.309c6.894-49.051,49.024-86.798,99.977-86.798c53.739,0,97.672,41.985,100.789,94.942
              c28.655,1.027,51.567,24.575,51.567,53.483c0,29.559-23.96,53.52-53.52,53.52c-94.806,0-181.537,0-275.807,0
              c-21.873,0-39.604-17.731-39.604-39.604S85.355,171.884,107.229,171.885L107.229,171.885z" />
        <path style="fill: #fad24d" d="M326.03,406.084c-6.387,0-11.562-5.176-11.562-11.562c0-6.386,5.176-11.561,11.562-11.561
              c6.386,0,11.561,5.176,11.561,11.561C337.592,400.908,332.416,406.084,326.03,406.084z" />
        <path style="fill: #ff5b62" d="M185.492,368.186c-6.387,0-11.562-5.176-11.562-11.562c0-6.386,5.176-11.561,11.562-11.561
              c6.386,0,11.561,5.176,11.561,11.561C197.053,363.01,191.877,368.186,185.492,368.186z" />
    </symbol>
    <symbol id="format_quote_white_24dp" height="100%" width="100%" viewBox="0 0 24 24" fill="#FFFFFF">
        <path d="M0 0h24v24H0V0z" fill="none" />
        <path
            d="M18.62 18h-5.24l2-4H13V6h8v7.24L18.62 18zm-2-2h.76L19 12.76V8h-4v4h3.62l-2 4zm-8 2H3.38l2-4H3V6h8v7.24L8.62 18zm-2-2h.76L9 12.76V8H5v4h3.62l-2 4z" />
    </symbol>
    <symbol id="git" height="100%" width="100%" viewBox="0 0 48 48" fill="#0085d1" stroke="#0085d1"
        stroke-width="1.9200000000000004">
        <g stroke-width="0" />
        <g id="SVGRepo_tracerCarrier" stroke-linecap="round" stroke-linejoin="round" />
        <g id="SVGRepo_iconCarrier">
            <defs>
                <style>
                    .a {
                        fill: none;
                        stroke: #0085d1;
                        stroke-linecap: round;
                        stroke-linejoin: round;
                    }
                </style>
            </defs>
            <path class="a"
                d="M4.21,22.12a2.87,2.87,0,0,0,0,3.77L22.12,43.8a2.87,2.87,0,0,0,3.77,0l17.9-17.91a2.85,2.85,0,0,0,0-3.77L25.89,4.21A2.68,2.68,0,0,0,24,3.51h0a2.66,2.66,0,0,0-1.88.71Z" />
            <line class="a" x1="26.33" y1="17.85" x2="30.15" y2="21.67" />
            <line class="a" x1="17.4" y1="8.92" x2="21.67" y2="13.19" />
            <circle class="a" cx="24" cy="32.41" r="3.3" />
            <circle class="a" cx="24" cy="15.52" r="3.3" />
            <circle class="a" cx="32.48" cy="24" r="3.3" />
            <line class="a" x1="24" y1="29.11" x2="24" y2="18.82" />
        </g>
    </symbol>
    <symbol id="line" fill="#65b4c8" height="100%" width="100%" viewBox="-2.4 -2.4 28.80 28.80" stroke="#65b4c8"
        stroke-width="0.00024000000000000003" transform="rotate(0)matrix(1, 0, 0, 1, 0, 0)">
        <g stroke-width="0" />

        <g id="SVGRepo_tracerCarrier" stroke-linecap="round" stroke-linejoin="round" />

        <g id="SVGRepo_iconCarrier">
            <path d="M23 13H2v-2h21v2z" />
        </g>
    </symbol>
    <symbol id="material-done" height="100%" width="100%" viewBox="0 0 24 24" fill="#18ac71">
        <path d="M0 0h24v24H0V0z" fill="none" />
        <path d="M9 16.2L4.8 12l-1.4 1.4L9 19 21 7l-1.4-1.4L9 16.2z" />
    </symbol>
    <symbol id="menu-alt-02" width="64px" height="64px" viewBox="0 0 24 24" fill="none">
        <g stroke-width="0" />
        <g id="SVGRepo_tracerCarrier" stroke-linecap="round" stroke-linejoin="round" />
        <g id="SVGRepo_iconCarrier">
            <g id="Menu / Menu_Alt_02">
                <path id="Vector" d="M11 17H19M5 12H19M11 7H19" stroke="#ffffff" stroke-width="2" stroke-linecap="round"
                    stroke-linejoin="round" />
            </g>
        </g>
    </symbol>
    <symbol id="search" width="800px" height="800px" viewBox="0 0 1024 1024" class="icon" fill="#ffffff">
        <g stroke-width="0" />
        <g id="SVGRepo_tracerCarrier" stroke-linecap="round" stroke-linejoin="round" />
        <g id="SVGRepo_iconCarrier">
            <path
                d="M492.5 917.7c-247 0-447.9-200.9-447.9-447.9s200.9-448 447.9-448 447.9 200.9 447.9 447.9-200.9 448-447.9 448z m0-810.6c-200 0-362.6 162.7-362.6 362.6s162.7 362.6 362.6 362.6 362.6-162.7 362.6-362.6-162.6-362.6-362.6-362.6z"
                fill="#ffffff" />
            <path
                d="M951.1 971c-10.9 0-21.8-4.2-30.2-12.5l-96-96c-16.7-16.7-16.7-43.7 0-60.3 16.6-16.7 43.7-16.7 60.3 0l96 96c16.7 16.7 16.7 43.7 0 60.3-8.2 8.4-19.2 12.5-30.1 12.5z"
                fill="#ffffff" />
        </g>
    </symbol>
    <symbol id="server" fill="#0085d1" viewBox="0 0 491.52 491.52" xml:space="preserve" width="64px" height="64px"
        stroke="#0085d1">
        <g id="SVGRepo_bgCarrier" stroke-width="0" />
        <g id="SVGRepo_tracerCarrier" stroke-linecap="round" stroke-linejoin="round" />
        <g id="SVGRepo_iconCarrier">
            <g>
                <g>
                    <rect x="92.16" y="40.96" width="61.44" height="20.48" />
                </g>
            </g>
            <g>
                <g>
                    <rect x="378.88" y="40.96" width="20.48" height="20.48" />
                </g>
            </g>
            <g>
                <g>
                    <rect x="337.92" y="40.96" width="20.48" height="20.48" />
                </g>
            </g>
            <g>
                <g>
                    <rect x="92.16" y="163.84" width="61.44" height="20.48" />
                </g>
            </g>
            <g>
                <g>
                    <rect x="378.88" y="163.84" width="20.48" height="20.48" />
                </g>
            </g>
            <g>
                <g>
                    <rect x="337.92" y="163.84" width="20.48" height="20.48" />
                </g>
            </g>
            <g>
                <g>
                    <path
                        d="M450.56,348.16c-19.029,0-34.926,13.104-39.506,30.72H378.88V266.24h40.96v-20.48h-40.96v-20.48h61.44v-102.4h-61.44 V102.4h61.44V0H51.2v102.4h61.44v20.48H51.2v102.4h61.44v20.48H71.68v20.48h40.96v112.64H80.466 c-4.58-17.616-20.477-30.72-39.506-30.72C18.375,348.16,0,366.535,0,389.12s18.375,40.96,40.96,40.96 c19.029,0,34.926-13.104,39.506-30.72h52.654V266.24h51.2v144.814c-17.616,4.58-30.72,20.477-30.72,39.506 c0,22.585,18.375,40.96,40.96,40.96s40.96-18.375,40.96-40.96c0-19.029-13.104-34.926-30.72-39.506V266.24h81.92v144.814 c-17.616,4.58-30.72,20.477-30.72,39.506c0,22.585,18.375,40.96,40.96,40.96c22.585,0,40.96-18.375,40.96-40.96 c0-19.029-13.104-34.926-30.72-39.506V266.24h51.2v133.12h52.654c4.58,17.616,20.477,30.72,39.506,30.72 c22.585,0,40.96-18.375,40.96-40.96S473.145,348.16,450.56,348.16z M40.96,409.6c-11.295,0-20.48-9.185-20.48-20.48 s9.185-20.48,20.48-20.48s20.48,9.185,20.48,20.48S52.255,409.6,40.96,409.6z M71.68,81.92V20.48h348.16v61.44H71.68z M358.4,102.4v20.48H133.12V102.4H358.4z M71.68,204.8v-61.44h348.16v61.44H71.68z M215.04,450.56 c0,11.295-9.185,20.48-20.48,20.48s-20.48-9.185-20.48-20.48s9.185-20.48,20.48-20.48S215.04,439.265,215.04,450.56z M317.44,450.56c0,11.295-9.185,20.48-20.48,20.48c-11.295,0-20.48-9.185-20.48-20.48s9.185-20.48,20.48-20.48 C308.255,430.08,317.44,439.265,317.44,450.56z M358.4,245.76H133.12v-20.48H358.4V245.76z M450.56,409.6 c-11.295,0-20.48-9.185-20.48-20.48s9.185-20.48,20.48-20.48s20.48,9.185,20.48,20.48S461.855,409.6,450.56,409.6z" />
                </g>
            </g>
        </g>
    </symbol>
    <symbol id="server-connect" width="64px" height="64px" viewBox="0 0 24 24" fill="#0085d1" stroke="#0085d1">
        <g stroke-width="0" />
        <g id="SVGRepo_tracerCarrier" stroke-linecap="round" stroke-linejoin="round" />
        <g id="SVGRepo_iconCarrier">
            <defs>
                <style>
                    .cls-1 {
                        fill: none;
                        stroke: #0085d1;
                        stroke-miterlimit: 10;
                        stroke-width: 0.9600000000000002;
                    }
                </style>
            </defs>
            <g id="roll_brush" data-name="roll brush">
                <rect class="cls-1" x="1.45" y="1.48" width="21.1" height="6.71" />
                <rect class="cls-1" x="1.45" y="8.19" width="21.1" height="6.71" />
                <line class="cls-1" x1="9.12" y1="3.4" x2="9.12" y2="5.32" />
                <line class="cls-1" x1="9.12" y1="10.11" x2="9.12" y2="12.03" />
                <line class="cls-1" x1="5.29" y1="3.4" x2="5.29" y2="5.32" />
                <line class="cls-1" x1="5.29" y1="10.11" x2="5.29" y2="12.03" />
                <line class="cls-1" x1="23.51" y1="20.66" x2="13.92" y2="20.66" />
                <line class="cls-1" x1="10.08" y1="20.66" x2="0.49" y2="20.66" />
                <rect class="cls-1" x="10.08" y="18.74" width="3.84" height="3.84" />
                <line class="cls-1" x1="12" y1="14.91" x2="12" y2="18.74" />
                <line class="cls-1" x1="19.67" y1="4.36" x2="15.84" y2="4.36" />
                <line class="cls-1" x1="19.67" y1="11.07" x2="15.84" y2="11.07" />
            </g>
        </g>
    </symbol>
    <symbol id="substratum" width="64px" height="64px" viewBox="0 0 48 48" fill="#0085d1" stroke="#0085d1"
        stroke-width="1.9200000000000004">
        <g stroke-width="0" />
        <g id="SVGRepo_tracerCarrier" stroke-linecap="round" stroke-linejoin="round" />
        <g id="SVGRepo_iconCarrier">
            <defs>
                <style>
                    .a {
                        fill: none;
                        stroke: #0085d1;
                        stroke-linecap: round;
                        stroke-linejoin: round;
                    }
                </style>
            </defs>
            <path class="a"
                d="M8.14,5.5h10a2.64,2.64,0,0,1,2.64,2.64V34.88a7.62,7.62,0,0,1-7.62,7.62h0A7.62,7.62,0,0,1,5.5,34.88V8.14A2.64,2.64,0,0,1,8.14,5.5Z" />
            <path class="a" d="M20.55,7.15A2.64,2.64,0,0,1,23.5,7l8.63,5a2.66,2.66,0,0,1,1.3,2.61" />
            <path class="a" d="M20.74,21.68l11.73-6.77a2.65,2.65,0,0,1,3.61,1l5,8.63a2.65,2.65,0,0,1-.18,2.91" />
            <path class="a" d="M20.74,27.26H39.86A2.64,2.64,0,0,1,42.5,29.9v10a2.64,2.64,0,0,1-2.64,2.64H13.12" />
            <circle class="a" cx="13.12" cy="34.88" r="3.3" />
        </g>
    </symbol>
    <symbol id="support" height="100%" width="100%" viewBox="0 0 20.00 20.00" fill="#0085d1" stroke="#0085d1">
        <g stroke-width="0" />
        <g id="SVGRepo_tracerCarrier" stroke-linecap="round" stroke-linejoin="round" />
        <g id="SVGRepo_iconCarrier">
            <g id="layer1">
                <path
                    d="M 0 1 L 0 12 L 2 12 L 2 15.5 C 2 15.776142 2.2238576 16 2.5 16 C 2.6326005 15.99998 2.7597628 15.94729 2.8535156 15.853516 C 4.1335162 14.57007 6.7070312 12 6.7070312 12 L 17 12 L 17 1 L 0 1 z M 1 2 L 16 2 L 16 11 L 6.2929688 11 L 3 14.292969 L 3 11 L 1 11 L 1 2 z M 3 4 L 3 5 L 11 5 L 11 4 L 3 4 z M 18 4 L 18 5 L 19 5 L 19 14 L 17 14 L 17 17.292969 L 13.707031 14 L 6 14 L 5 15 L 13.292969 15 C 13.292969 15 15.866484 17.57007 17.146484 18.853516 C 17.240237 18.94729 17.367399 18.99998 17.5 19 C 17.776142 19 18 18.776142 18 18.5 L 18 15 L 20 15 L 20 4 L 18 4 z M 3 6 L 3 7 L 7 7 L 7 6 L 3 6 z M 3 8 L 3 9 L 13 9 L 13 8 L 3 8 z "
                    style="fill: #0085d1; fill-opacity: 1; stroke-width: 0.0002" />
            </g>
        </g>
    </symbol>
    <symbol id="update" fill="#0085d1" height="100%" width="100%" viewBox="0 0 30.00 30.00" stroke="#0085d1"
        stroke-width="0.9">
        <g stroke-width="0" />
        <g id="SVGRepo_tracerCarrier" stroke-linecap="round" stroke-linejoin="round" />
        <g id="SVGRepo_iconCarrier">
            <path style="
                  text-indent: 0;
                  text-align: start;
                  line-height: normal;
                  text-transform: none;
                  block-progression: tb;
                  -inkscape-font-specification: Sans;
                "
                d="M29.126 12.16l-3.644 3.64-3.612-3.64c-.45-.464-1.2.234-.71.71l3.967 3.993c.186.186.525.186.71 0l4-3.994c.49-.488-.238-1.18-.71-.71zM15.53 4.012c-4.307-.187-8.5 2.164-10.467 6.28-.288.6.59 1 .875.44 2.39-5 8.41-7.13 13.437-4.75 3.038 1.437 5.14 4.282 5.625 7.592.095.693 1.102.46 1-.156-.534-3.642-2.88-6.765-6.22-8.345-1.377-.652-2.813-1-4.25-1.062zM.875 17.843l3.644-3.64 3.612 3.64c.45.464 1.2-.234.71-.71L4.873 13.14c-.186-.186-.525-.186-.71 0l-4 3.993c-.49.488.238 1.18.71.71zM14.47 25.99c4.307.187 8.5-2.165 10.468-6.28.287-.6-.592-1-.875-.44-2.39 5-8.41 7.13-13.438 4.75C7.587 22.584 5.485 19.74 5 16.428c-.095-.693-1.102-.458-1 .156.534 3.642 2.88 6.764 6.22 8.344 1.377.653 2.813 1 4.25 1.063z" />
        </g>
    </symbol>
    <symbol id="wordpress" height="100%" width="100%" viewBox="0 0 48 48" fill="#0085d1" stroke="#0085d1"
        stroke-width="1.9200000000000004">
        <g stroke-width="0" />

        <g id="SVGRepo_tracerCarrier" stroke-linecap="round" stroke-linejoin="round" />

        <g id="SVGRepo_iconCarrier">
            <defs>
                <style>
                    .a {
                        fill: none;
                        stroke: #0085d1;
                        stroke-linecap: round;
                        stroke-linejoin: round;
                    }
                </style>
            </defs>
            <line class="a" x1="18.8239" y1="10.86" x2="30.2819" y2="10.86" />
            <line class="a" x1="5.5" y1="10.86" x2="15.2378" y2="10.86" />
            <line class="a" x1="21.3021" y1="10.86" x2="32.6467" y2="41.5132" />
            <line class="a" x1="27.0993" y1="10.86" x2="35.5453" y2="33.6813" />
            <line class="a" x1="6.5516" y1="10.86" x2="17.8441" y2="41.3725" />
            <line class="a" x1="12.3487" y1="10.86" x2="20.7427" y2="33.5405" />
            <line class="a" x1="25.2222" y1="21.437" x2="17.8441" y2="41.3725" />
            <line class="a" x1="40.3259" y1="20.7642" x2="32.6467" y2="41.5132" />
            <path class="a"
                d="M40.3259,20.7642c.4373-1.5221,2.1741-3.8,2.1741-7.0761,0-5.1354-1.6632-7.2013-4.3746-7.2013-2.2158,0-3.0037,2.1283-3.0037,3.9067C35.1217,15.6706,40.3259,16.4,40.3259,20.7642Z" />
        </g>
    </symbol>
</svg>