<svg xmlns="http://www.w3.org/2000/svg" version="1.1" xmlns:xlink="http://www.w3.org/1999/xlink" xmlns:svgjs="http://svgjs.dev/svgjs" width="570" height="616" preserveAspectRatio="none" viewBox="0 0 570 616"><g mask="url(&quot;#SvgjsMask1212&quot;)" fill="none"><rect width="570" height="616" x="0" y="0" fill="rgba(10, 35, 50, 1)"></rect><path d="M0,250.168C47.09,249.799,90.422,227.793,129.678,201.783C168.51,176.053,202.199,143.496,223.509,102.073C245.494,59.338,256.841,11.577,252.134,-36.251C247.296,-85.41,226.333,-130.92,196.691,-170.433C165.464,-212.059,128.922,-254.445,78.577,-267.608C28.672,-280.657,-21.203,-255.296,-70.562,-240.311C-119.453,-225.468,-179.559,-222.741,-208.318,-180.509C-237.028,-138.349,-208.719,-81.47,-213.32,-30.671C-217.595,16.529,-250.063,62.313,-234.363,107.03C-218.402,152.491,-172.109,178.712,-130.99,203.825C-90.646,228.465,-47.272,250.538,0,250.168" fill="#081a26"></path><path d="M570 812.835C609.5 811.1759999999999 650.35 814.037 684.7570000000001 794.565 720.116 774.554 740.947 738.356 762.482 703.904 786.982 664.7090000000001 827.712 625.579 818.73 580.238 809.703 534.669 755.351 515.973 719.421 486.526 689.827 462.272 660.915 440.01300000000003 626.7090000000001 422.866 585.551 402.23400000000004 543.818 363.41200000000003 499.633 376.351 455.452 389.288 447.28 448.757 417.73400000000004 484.06100000000004 388.878 518.54 344.124 539.196 328.166 581.23 310.464 627.858 301.48 683.923 325.203 727.795 348.751 771.344 402.111 788.225 448.877 804.471 487.897 818.0260000000001 528.729 814.568 570 812.835" fill="#0d2c3f"></path></g><defs><mask id="SvgjsMask1212"><rect width="570" height="616" fill="#ffffff"></rect></mask></defs></svg>