<svg height="800" width="800" version="1.1" id="Layer_1" xmlns="http://www.w3.org/2000/svg" viewBox="0 0 512 512" xml:space="preserve"><circle style="fill:#21d0c3" cx="256" cy="256" r="256"/><path style="fill:#fff" d="M252.442 305.805h-70.194v50.39h6.126v-44.263h64.068v143.305h6.126V350.219h64.067v44.263h6.126v-50.39H258.568V225.146h-6.126v80.659z"/><path style="fill:#0f7986" d="M255.503 475.702c6.353 0 11.5-5.149 11.5-11.5s-5.148-11.502-11.5-11.502-11.5 5.15-11.5 11.502 5.148 11.5 11.5 11.5z"/><path style="fill:#fff" d="M143.05 284.901H83.365v6.126h59.684v50.645h6.127V192.388h-6.127l.001 92.513z"/><path style="fill:#fad24d" d="M146.114 353.171c6.352 0 11.5-5.149 11.5-11.5 0-6.353-5.149-11.502-11.5-11.502-6.353 0-11.503 5.149-11.503 11.502 0 6.352 5.15 11.5 11.503 11.5z"/><path style="fill:#0f7986" d="M83.498 299.991c6.353 0 11.502-5.149 11.502-11.502 0-6.352-5.149-11.5-11.502-11.5-6.352 0-11.5 5.149-11.5 11.5-.001 6.353 5.148 11.502 11.5 11.502z"/><path style="fill:#fff" d="M367.493 284.901h59.684v6.126h-59.684v50.645h-6.127V192.388h6.127v92.513z"/><path style="fill:#0f7986" d="M364.429 352.985c-6.248 0-11.311-5.065-11.311-11.313 0-6.249 5.064-11.314 11.311-11.314 6.249 0 11.314 5.065 11.314 11.314 0 6.247-5.065 11.313-11.314 11.313z"/><path style="fill:#ff5b62" d="M427.045 300.052c-6.387 0-11.562-5.176-11.562-11.562 0-6.386 5.176-11.561 11.562-11.561 6.386 0 11.561 5.176 11.561 11.561 0 6.386-5.176 11.562-11.561 11.562z"/><path style="fill:#ecf0f1" d="M109.433 177.179c.559 0 1.112.013 1.665.038 8.189-22.901 30.066-39.285 55.78-39.285a59.098 59.098 0 0 1 19.551 3.309c6.895-49.05 49.024-86.798 99.978-86.798 53.738 0 97.67 41.985 100.788 94.942 28.657 1.028 51.568 24.576 51.568 53.483 0 29.559-23.96 53.52-53.52 53.52H109.434c-21.873 0-39.603-17.731-39.603-39.604s17.73-39.606 39.602-39.605z"/><path style="fill:#fff" d="M107.229 171.885c.558 0 1.111.014 1.663.038 8.189-22.899 30.066-39.284 55.781-39.284 6.85 0 13.431 1.167 19.551 3.309 6.894-49.051 49.024-86.798 99.977-86.798 53.739 0 97.672 41.985 100.789 94.942 28.655 1.027 51.567 24.575 51.567 53.483 0 29.559-23.96 53.52-53.52 53.52H107.23c-21.873 0-39.604-17.731-39.604-39.604s17.729-39.607 39.603-39.606z"/><path style="fill:#fad24d" d="M326.03 406.084c-6.387 0-11.562-5.176-11.562-11.562 0-6.386 5.176-11.561 11.562-11.561 6.386 0 11.561 5.176 11.561 11.561.001 6.386-5.175 11.562-11.561 11.562z"/><path style="fill:#ff5b62" d="M185.492 368.186c-6.387 0-11.562-5.176-11.562-11.562 0-6.386 5.176-11.561 11.562-11.561 6.386 0 11.561 5.176 11.561 11.561 0 6.386-5.176 11.562-11.561 11.562z"/></svg>